<?xml version="1.0" encoding="UTF-8" standalone="no"?>
<svg xmlns:ffdec="https://www.free-decompiler.com/flash" xmlns:xlink="http://www.w3.org/1999/xlink" ffdec:objectType="shape" height="24.95px" width="14.3px" xmlns="http://www.w3.org/2000/svg">
  <g transform="matrix(1.0, 0.0, 0.0, 1.0, 2.15, -1.0)">
    <path d="M0.85 12.0 Q0.2 10.3 0.25 8.75 0.25 8.05 0.4 7.7 L0.85 6.8 3.95 2.2 4.4 1.75 Q4.5 1.35 5.0 1.1 L6.15 1.25 6.75 2.05 8.2 5.55 8.75 6.95 9.1 7.5 9.55 8.25 9.5 9.35 9.05 11.35 8.45 14.25 Q9.8 14.4 10.45 14.8 L11.1 15.4 Q11.8 16.1 11.95 16.55 L12.15 17.35 Q12.25 18.55 11.65 19.65 11.0 20.8 9.25 22.05 L8.2 22.8 8.3 23.7 Q8.5 24.7 8.3 25.1 7.9 25.7 6.75 25.8 L4.5 25.95 3.25 25.6 Q2.7 25.25 2.7 24.35 L2.8 23.2 2.1 22.75 0.75 22.1 -0.35 21.35 -1.9 19.8 Q-2.2 19.35 -2.15 18.45 L-1.9 16.7 Q-1.45 15.6 -0.2 15.0 L1.35 14.55 0.85 12.0 M6.55 12.25 L6.95 9.05 5.0 4.1 3.25 7.4 2.85 8.5 Q2.75 8.95 3.0 10.3 L3.4 12.2 4.05 14.65 4.2 14.7 4.9 15.05 5.5 15.0 Q5.85 14.65 6.3 14.5 L6.55 12.25 M5.7 21.35 L6.0 21.15 6.6 20.65 8.8 18.85 9.5 17.9 Q9.7 17.25 9.25 16.8 8.75 16.35 7.95 16.35 L7.3 16.45 6.75 17.25 6.75 17.3 6.25 17.6 6.05 17.8 5.75 17.8 5.2 17.7 4.8 17.5 4.45 17.2 4.2 16.85 Q3.55 16.35 3.1 16.35 L2.5 16.3 Q1.55 16.35 1.25 16.85 1.05 17.0 1.0 17.4 L0.9 18.45 1.7 19.55 2.55 20.2 3.55 20.65 4.95 21.6 5.3 21.9 5.7 21.35" fill="#000000" fill-rule="evenodd" stroke="none"/>
    <path d="M6.55 12.25 L6.3 14.5 Q5.85 14.65 5.5 15.0 L4.9 15.05 4.2 14.7 4.05 14.65 3.4 12.2 3.0 10.3 Q2.75 8.95 2.85 8.5 L3.25 7.4 5.0 4.1 6.95 9.05 6.55 12.25" fill="#d0d0d0" fill-rule="evenodd" stroke="none"/>
    <path d="M5.7 21.35 L5.3 21.9 4.95 21.6 3.55 20.65 2.55 20.2 1.7 19.55 0.9 18.45 1.0 17.4 Q1.05 17.0 1.25 16.85 1.55 16.35 2.5 16.3 L3.1 16.35 Q3.55 16.35 4.2 16.85 L4.45 17.2 4.8 17.5 5.2 17.7 5.75 17.8 6.05 17.8 6.25 17.6 6.75 17.3 6.75 17.25 7.3 16.45 7.95 16.35 Q8.75 16.35 9.25 16.8 9.7 17.25 9.5 17.9 L8.8 18.85 6.6 20.65 6.0 21.15 5.7 21.35" fill="#a78484" fill-rule="evenodd" stroke="none"/>
  </g>
</svg>
