<?xml version="1.0" encoding="UTF-8" standalone="no"?>
<svg xmlns:ffdec="https://www.free-decompiler.com/flash" xmlns:xlink="http://www.w3.org/1999/xlink" ffdec:objectType="shape" height="13.4px" width="14.55px" xmlns="http://www.w3.org/2000/svg">
  <g transform="matrix(1.0, 0.0, 0.0, 1.0, 2.55, -8.3)">
    <path d="M6.7 8.4 L8.4 8.3 Q9.85 8.45 10.45 9.0 L11.1 9.75 Q11.75 10.65 11.85 11.3 L12.0 12.3 Q12.0 13.85 11.3 15.25 10.55 16.8 8.7 18.35 L6.0 20.6 5.65 21.25 Q5.15 21.8 4.5 21.7 3.85 21.6 3.0 20.75 L1.4 19.3 0.1 18.4 -0.9 17.45 Q-2.1 16.3 -2.35 15.5 -2.6 14.85 -2.5 13.7 -2.4 12.15 -2.1 11.45 -1.55 10.05 -0.25 9.25 0.9 8.55 2.5 8.45 L4.2 8.85 5.1 9.5 5.15 9.55 Q5.85 8.65 6.7 8.4 M5.2 17.45 L6.15 16.6 8.5 14.3 9.25 13.0 Q9.5 12.2 9.1 11.6 8.6 11.05 7.8 11.05 L7.15 11.15 6.55 12.2 6.05 12.65 5.8 12.85 5.5 12.85 4.95 12.75 4.25 12.15 4.05 11.65 2.95 10.95 2.35 10.9 Q1.35 11.05 1.05 11.65 L0.75 12.35 0.55 13.75 Q0.65 14.3 1.3 15.1 L2.05 15.95 3.05 16.6 4.75 18.15 5.2 17.45" fill="#000000" fill-rule="evenodd" stroke="none"/>
    <path d="M5.2 17.45 L4.75 18.15 3.05 16.6 2.05 15.95 1.3 15.1 Q0.65 14.3 0.55 13.75 L0.75 12.35 1.05 11.65 Q1.35 11.05 2.35 10.9 L2.95 10.95 4.05 11.65 4.25 12.15 4.95 12.75 5.5 12.85 5.8 12.85 6.05 12.65 6.55 12.2 7.15 11.15 7.8 11.05 Q8.6 11.05 9.1 11.6 9.5 12.2 9.25 13.0 L8.5 14.3 6.15 16.6 5.2 17.45" fill="#a78484" fill-rule="evenodd" stroke="none"/>
  </g>
</svg>
