<?xml version="1.0" encoding="UTF-8" standalone="no"?>
<svg xmlns:ffdec="https://www.free-decompiler.com/flash" xmlns:xlink="http://www.w3.org/1999/xlink" ffdec:objectType="shape" height="40.3px" width="99.8px" xmlns="http://www.w3.org/2000/svg">
  <g transform="matrix(1.0, 0.0, 0.0, 1.0, 2.0, 2.0)">
    <path d="M86.35 36.25 L82.4 36.25 82.4 -0.15 86.35 -0.15 91.35 15.1 86.35 36.25 M10.9 0.0 L9.2 18.0 10.9 36.1 6.35 36.25 5.05 36.25 0.0 21.0 0.75 18.05 0.0 15.1 5.05 -0.15 6.35 -0.15 6.35 -0.1 10.9 0.0" fill="#111111" fill-rule="evenodd" stroke="none"/>
    <path d="M86.35 36.25 L91.35 15.1 86.35 -0.15 90.8 -0.15 95.8 15.1 95.1 18.05 95.8 21.0 90.8 36.25 86.35 36.25" fill="#ffffff" fill-rule="evenodd" stroke="none"/>
    <path d="M90.15 36.3 L95.8 15.35 90.1 0.0 M5.7 0.0 L0.0 15.35 5.75 36.3" fill="none" stroke="#000000" stroke-linecap="round" stroke-linejoin="round" stroke-width="4.0"/>
  </g>
</svg>
