<?xml version="1.0" encoding="UTF-8" standalone="no"?>
<svg xmlns:ffdec="https://www.free-decompiler.com/flash" xmlns:xlink="http://www.w3.org/1999/xlink" ffdec:objectType="shape" height="113.55px" width="84.2px" xmlns="http://www.w3.org/2000/svg">
  <g transform="matrix(1.0, 0.0, 0.0, 1.0, 0.25, 10.35)">
    <path d="M-0.25 79.3 L-0.25 3.6 Q37.45 -24.3 83.95 3.6 L83.95 79.3 74.95 79.3 57.45 103.2 24.05 103.2 8.75 79.3 -0.25 79.3 M13.4 13.05 L9.8 13.05 9.8 70.6 73.9 70.6 73.9 67.0 77.5 67.0 77.5 9.45 13.4 9.45 13.4 13.05" fill="#111111" fill-rule="evenodd" stroke="none"/>
    <path d="M13.4 13.05 L13.4 9.45 77.5 9.45 77.5 67.0 73.9 67.0 73.5 67.0 73.5 13.45 13.4 13.45 13.4 13.05" fill="#000000" fill-opacity="0.49803922" fill-rule="evenodd" stroke="none"/>
    <path d="M41.25 79.3 L62.9 77.75 63.0 94.35 41.35 95.95 41.25 79.3" fill="#000000" fill-opacity="0.49803922" fill-rule="evenodd" stroke="none"/>
  </g>
</svg>
