<?xml version="1.0" encoding="UTF-8" standalone="no"?>
<svg xmlns:ffdec="https://www.free-decompiler.com/flash" xmlns:xlink="http://www.w3.org/1999/xlink" ffdec:objectType="shape" height="35.1px" width="37.75px" xmlns="http://www.w3.org/2000/svg">
  <g transform="matrix(1.0, 0.0, 0.0, 1.0, 4.3, -9.1)">
    <path d="M1.65 17.05 Q11.95 8.3 22.8 22.95 L19.75 23.25 Q16.35 24.15 14.4 27.1 L12.85 28.4 Q12.05 29.2 11.4 30.3 10.4 32.05 10.2 34.0 10.45 16.4 -2.05 23.3 -2.55 22.7 -3.2 22.5 -0.8 19.1 1.65 17.05 M10.2 35.15 L10.2 35.6 10.15 35.6 10.2 35.15" fill="#d3d3d3" fill-rule="evenodd" stroke="none"/>
    <path d="M27.25 40.0 L27.5 39.55 Q29.4 36.25 28.4 32.5 27.95 30.9 27.1 29.65 25.95 28.0 24.1 26.9 20.75 24.95 17.05 25.95 15.6 26.35 14.4 27.1 16.35 24.15 19.75 23.25 L22.8 22.95 Q11.95 8.3 1.65 17.05 15.25 1.4 29.8 26.95 L30.45 28.0 31.1 29.8 Q32.1 33.55 30.2 36.85 29.05 38.85 27.25 40.0" fill="#ffffff" fill-rule="evenodd" stroke="none"/>
    <path d="M14.4 27.1 Q15.6 26.35 17.05 25.95 20.75 24.95 24.1 26.9 25.95 28.0 27.1 29.65 27.95 30.9 28.4 32.5 29.4 36.25 27.5 39.55 L27.25 40.0 Q25.3 42.9 21.85 43.85 18.15 44.85 14.8 42.95 11.5 41.05 10.5 37.3 L10.2 35.6 10.2 35.15 10.2 34.0 Q10.4 32.05 11.4 30.3 12.05 29.2 12.85 28.4 L14.4 27.1" fill="#666666" fill-rule="evenodd" stroke="none"/>
    <path d="M12.9 31.25 Q13.1 29.35 14.1 27.6 L14.4 27.1 Q16.35 24.15 19.75 23.25 L22.8 22.95 Q24.85 23.05 26.8 24.2 28.65 25.3 29.8 26.95 15.25 1.4 1.65 17.05 -0.35 19.3 -2.3 22.45 11.95 12.6 12.85 28.4 L12.9 31.25 12.9 32.55 12.9 32.9 13.2 34.6 Q14.2 38.35 17.5 40.25 20.85 42.15 24.55 41.15 26.05 40.75 27.25 40.0 29.05 38.85 30.2 36.85 32.1 33.55 31.1 29.8 L30.45 28.0 29.8 26.95" fill="none" stroke="#000000" stroke-linecap="round" stroke-linejoin="round" stroke-width="4.0"/>
  </g>
</svg>
