<?xml version="1.0" encoding="UTF-8" standalone="no"?>
<svg xmlns:ffdec="https://www.free-decompiler.com/flash" xmlns:xlink="http://www.w3.org/1999/xlink" ffdec:objectType="shape" height="113.55px" width="84.2px" xmlns="http://www.w3.org/2000/svg">
  <g transform="matrix(1.0, 0.0, 0.0, 1.0, 0.25, 10.35)">
    <path d="M2.0 79.3 L-0.25 79.3 -0.25 3.6 1.0 2.7 Q38.2 -23.85 83.95 3.6 L83.95 79.3 81.65 79.3 81.65 103.2 2.0 103.2 2.0 79.3 M73.9 67.0 L77.5 67.0 77.5 9.45 13.4 9.45 13.4 13.05 9.8 13.05 9.8 70.6 73.9 70.6 73.9 67.0" fill="#111111" fill-rule="evenodd" stroke="none"/>
    <path d="M13.4 13.05 L13.4 9.45 77.5 9.45 77.5 67.0 73.9 67.0 73.5 67.0 73.5 13.45 13.4 13.45 13.4 13.05" fill="#000000" fill-opacity="0.49803922" fill-rule="evenodd" stroke="none"/>
    <path d="M21.2 79.25 L42.85 79.25 40.95 95.85 19.3 95.85 21.2 79.25" fill="#ffffff" fill-opacity="0.49803922" fill-rule="evenodd" stroke="none"/>
    <path d="M60.45 80.2 L82.1 78.65 82.2 95.25 60.55 96.85 60.45 80.2" fill="#000000" fill-opacity="0.49803922" fill-rule="evenodd" stroke="none"/>
  </g>
</svg>
