<?xml version="1.0" encoding="UTF-8" standalone="no"?>
<svg xmlns:ffdec="https://www.free-decompiler.com/flash" xmlns:xlink="http://www.w3.org/1999/xlink" ffdec:objectType="shape" height="23.1px" width="14.6px" xmlns="http://www.w3.org/2000/svg">
  <g transform="matrix(1.0, 0.0, 0.0, 1.0, 2.35, -2.25)">
    <path d="M1.7 15.05 L1.4 15.15 1.35 11.2 -1.1 8.1 2.6 6.8 4.75 3.5 7.2 6.65 11.0 7.65 8.7 10.9 8.95 14.9 6.8 14.25 6.05 14.05 5.1 13.7 5.1 13.75 4.45 14.0 3.95 14.15 3.9 14.2 3.85 13.85 2.95 13.45 2.95 13.5 1.8 13.95 1.7 15.05" fill="#ffffff" fill-rule="evenodd" stroke="none"/>
    <path d="M6.8 14.25 L6.8 14.7 6.05 14.5 6.05 14.05 6.8 14.25 M4.45 14.0 L5.1 13.75 5.1 13.7 6.05 14.05 6.05 14.5 4.45 14.0" fill="#c5c5c5" fill-rule="evenodd" stroke="none"/>
    <path d="M3.0 23.8 L0.8 23.85 1.7 15.05 1.8 13.95 2.95 13.5 2.95 13.45 3.85 13.85 3.9 14.2 3.9 14.7 4.25 23.75 3.0 23.8 3.9 14.7 3.0 23.8 M1.7 15.05 L3.9 14.2 1.7 15.05" fill="#838383" fill-rule="evenodd" stroke="none"/>
    <path d="M6.05 14.5 L6.4 23.95 4.3 24.05 4.25 23.75 3.9 14.7 3.95 14.15 4.45 14.0 6.05 14.5" fill="#8f8f8f" fill-rule="evenodd" stroke="none"/>
    <path d="M1.7 15.05 L1.4 15.15 1.35 11.2 -1.1 8.1 2.6 6.8 4.75 3.5 7.2 6.65 11.0 7.65 8.7 10.9 8.95 14.9 6.8 14.25 6.05 14.05 5.1 13.7 5.1 13.75 4.45 14.0 3.95 14.15 3.9 14.7 3.0 23.8 2.95 24.1 4.3 24.05 6.4 23.95 6.05 14.5 6.05 14.05 M3.9 14.2 L3.95 14.15 M3.9 14.2 L1.7 15.05" fill="none" stroke="#000000" stroke-linecap="round" stroke-linejoin="round" stroke-width="2.5"/>
  </g>
</svg>
