<?xml version="1.0" encoding="UTF-8" standalone="no"?>
<svg xmlns:ffdec="https://www.free-decompiler.com/flash" xmlns:xlink="http://www.w3.org/1999/xlink" ffdec:objectType="shape" height="23.3px" width="17.95px" xmlns="http://www.w3.org/2000/svg">
  <g transform="matrix(1.0, 0.0, 0.0, 1.0, 3.75, -1.95)">
    <path d="M9.15 13.6 L11.25 12.95 10.9 16.85 12.95 20.0 9.35 20.95 7.0 24.0 5.1 20.8 4.65 20.65 4.6 20.3 5.8 20.15 6.7 19.85 7.3 19.0 7.4 17.95 7.4 16.95 Q7.4 15.7 6.95 15.4 L6.8 15.25 6.55 14.85 5.7 14.45 4.85 14.6 4.95 14.05 5.55 14.3 5.55 14.35 6.4 13.95 6.45 13.65 6.5 13.7 6.95 13.8 7.55 14.05 7.55 14.1 8.45 13.8 9.15 13.6" fill="#ffffff" fill-rule="evenodd" stroke="none"/>
    <path d="M3.95 4.25 L5.85 4.3 7.0 4.35 6.5 13.15 6.45 13.65 5.15 13.1 6.45 13.65 6.4 13.95 5.55 14.35 5.55 14.3 4.95 14.05 5.15 13.1 5.45 11.55 5.9 9.7 5.95 8.7 5.2 7.45 4.65 6.15 3.95 4.25 M5.85 4.3 L6.5 13.15 5.85 4.3" fill="#838383" fill-rule="evenodd" stroke="none"/>
    <path d="M4.65 20.65 L4.65 21.55 4.75 23.05 Q4.95 24.0 4.75 24.4 4.4 24.95 3.3 25.05 L1.2 25.2 0.05 24.9 Q-0.5 24.5 -0.5 23.7 L-0.4 22.3 -0.65 21.1 -0.65 20.85 -1.45 20.95 Q-2.7 21.05 -3.05 20.65 L-3.55 19.7 -3.7 19.15 -3.75 18.15 Q-3.75 16.7 -3.3 16.3 L-2.9 16.1 -2.85 15.95 Q-2.55 15.65 -2.1 15.6 L-1.55 15.45 -2.2 12.15 Q-2.85 10.55 -2.8 9.1 L-2.65 8.2 -2.2 7.3 0.7 3.05 1.1 2.6 Q1.2 2.2 1.65 2.05 L2.75 2.15 3.3 2.9 3.95 4.25 4.65 6.15 5.2 7.45 5.95 8.7 5.9 9.7 5.45 11.55 5.15 13.1 4.95 14.05 4.85 14.6 5.7 14.45 6.55 14.85 6.8 15.25 6.95 15.4 Q7.4 15.7 7.4 16.95 L7.4 17.95 7.3 19.0 6.7 19.85 5.8 20.15 4.6 20.3 4.65 20.65 M2.9 14.75 L3.1 12.4 3.5 9.45 1.65 4.85 0.05 7.9 -0.35 8.9 -0.2 10.55 0.15 12.35 0.9 15.15 2.9 14.85 2.9 14.75 M1.1 17.35 L-0.1 17.5 -1.2 17.85 -1.25 18.35 -1.15 18.6 -0.95 18.7 0.65 18.55 4.7 17.95 5.05 17.8 5.15 17.45 5.15 16.85 3.6 17.1 1.1 17.35 M1.7 22.85 L2.15 22.9 2.5 22.55 2.6 21.65 2.6 20.7 2.65 20.45 1.55 20.6 1.7 22.85" fill="#000000" fill-rule="evenodd" stroke="none"/>
    <path d="M2.9 14.75 L2.9 14.85 0.9 15.15 0.15 12.35 -0.2 10.55 -0.35 8.9 0.05 7.9 1.65 4.85 3.5 9.45 3.1 12.4 2.9 14.75" fill="#d0d0d0" fill-rule="evenodd" stroke="none"/>
    <path d="M1.1 17.35 L3.6 17.1 5.15 16.85 5.15 17.45 5.05 17.8 4.7 17.95 0.65 18.55 -0.95 18.7 -1.15 18.6 -1.25 18.35 -1.2 17.85 -0.1 17.5 1.1 17.35 M1.7 22.85 L1.55 20.6 2.65 20.45 2.6 20.7 2.6 21.65 2.5 22.55 2.15 22.9 1.7 22.85" fill="#858585" fill-rule="evenodd" stroke="none"/>
    <path d="M8.5 13.35 L9.2 13.15 9.15 13.6 8.45 13.8 7.55 14.1 7.55 14.05 6.95 13.8 8.5 13.35 8.45 13.8 8.5 13.35" fill="#c5c5c5" fill-rule="evenodd" stroke="none"/>
    <path d="M7.05 4.05 L9.05 4.15 8.5 13.35 6.95 13.8 6.5 13.7 6.5 13.15 7.0 4.35 7.05 4.05" fill="#8f8f8f" fill-rule="evenodd" stroke="none"/>
    <path d="M5.85 4.3 L5.85 4.0 7.05 4.05 9.05 4.15 8.5 13.35 8.45 13.8 7.55 14.1 7.55 14.05 6.95 13.8 6.5 13.7 6.45 13.65 5.15 13.1 M9.15 13.6 L11.25 12.95 10.9 16.85 12.95 20.0 9.35 20.95 7.0 24.0 5.1 20.8 4.65 20.65 M6.5 13.15 L5.85 4.3 M9.15 13.6 L8.45 13.8 M6.5 13.7 L6.5 13.15" fill="none" stroke="#000000" stroke-linecap="round" stroke-linejoin="round" stroke-width="2.5"/>
  </g>
</svg>
