<?xml version="1.0" encoding="UTF-8" standalone="no"?>
<svg xmlns:ffdec="https://www.free-decompiler.com/flash" xmlns:xlink="http://www.w3.org/1999/xlink" ffdec:objectType="shape" height="24.8px" width="14.6px" xmlns="http://www.w3.org/2000/svg">
  <g transform="matrix(1.0, 0.0, 0.0, 1.0, 2.15, -1.45)">
    <path d="M1.9 14.25 L1.6 14.35 1.55 10.4 -0.9 7.3 2.8 6.0 4.95 2.7 7.4 5.85 11.2 6.85 8.9 10.1 9.15 14.1 7.0 13.45 6.25 13.25 5.3 12.9 5.3 12.95 4.65 13.2 4.15 13.35 4.1 13.4 4.05 13.05 3.15 12.65 3.15 12.7 2.0 13.15 1.9 14.25" fill="#ffffff" fill-rule="evenodd" stroke="none"/>
    <path d="M1.85 14.65 L1.9 14.25 2.0 13.15 3.15 12.7 3.15 12.65 4.05 13.05 4.1 13.4 4.1 13.9 4.15 14.65 4.05 14.6 3.1 14.45 1.85 14.65 M4.05 14.6 L4.1 13.9 4.05 14.6 M1.9 14.25 L4.1 13.4 1.9 14.25" fill="#838383" fill-rule="evenodd" stroke="none"/>
    <path d="M7.0 13.45 L7.0 13.9 6.25 13.7 6.25 13.25 7.0 13.45 M4.65 13.2 L5.3 12.95 5.3 12.9 6.25 13.25 6.25 13.7 4.65 13.2" fill="#c5c5c5" fill-rule="evenodd" stroke="none"/>
    <path d="M6.3 14.7 Q6.55 14.5 6.8 14.45 L8.35 14.35 Q9.65 14.45 10.15 14.95 L10.75 15.65 11.4 17.0 11.55 17.9 Q11.55 19.3 10.9 20.55 10.25 21.9 8.6 23.3 L6.2 25.3 5.9 25.85 Q5.45 26.35 4.85 26.25 4.3 26.2 3.55 25.45 L2.1 24.15 0.95 23.35 0.05 22.5 -1.25 20.75 -1.35 19.15 -1.0 17.15 Q-0.5 15.9 0.65 15.2 1.2 14.85 1.85 14.65 L3.1 14.45 4.05 14.6 4.15 14.65 4.6 14.85 5.4 15.4 5.45 15.45 6.3 14.7 M5.5 22.5 L6.35 21.75 6.55 21.6 8.4 19.7 9.1 18.55 Q9.3 17.8 8.95 17.3 8.5 16.8 7.8 16.8 L7.2 16.9 6.7 17.8 6.4 18.1 6.25 18.2 6.0 18.4 5.75 18.4 5.25 18.3 4.65 17.75 4.45 17.3 4.25 17.1 3.8 16.8 3.5 16.7 2.95 16.65 Q2.05 16.8 1.8 17.3 1.6 17.5 1.55 17.85 L1.5 17.95 1.35 19.2 1.4 19.35 2.0 20.4 2.7 21.15 3.35 21.65 3.55 21.75 4.45 22.45 5.1 23.1 5.5 22.5" fill="#000000" fill-rule="evenodd" stroke="none"/>
    <path d="M5.5 22.5 L5.1 23.1 4.45 22.45 3.55 21.75 3.35 21.65 2.7 21.15 2.0 20.4 1.4 19.35 1.35 19.2 1.5 17.95 1.55 17.85 Q1.6 17.5 1.8 17.3 2.05 16.8 2.95 16.65 L3.5 16.7 3.8 16.8 4.25 17.1 4.45 17.3 4.65 17.75 5.25 18.3 5.75 18.4 6.0 18.4 6.25 18.2 6.4 18.1 6.7 17.8 7.2 16.9 7.8 16.8 Q8.5 16.8 8.95 17.3 9.3 17.8 9.1 18.55 L8.4 19.7 6.55 21.6 6.35 21.75 5.5 22.5" fill="#a78484" fill-rule="evenodd" stroke="none"/>
    <path d="M6.25 13.7 L6.3 14.7 5.45 15.45 5.4 15.4 4.6 14.85 4.15 14.65 4.1 13.9 4.15 13.35 4.65 13.2 6.25 13.7" fill="#8f8f8f" fill-rule="evenodd" stroke="none"/>
    <path d="M1.9 14.25 L1.6 14.35 1.55 10.4 -0.9 7.3 2.8 6.0 4.95 2.7 7.4 5.85 11.2 6.85 8.9 10.1 9.15 14.1 7.0 13.45 6.25 13.25 5.3 12.9 5.3 12.95 4.65 13.2 4.15 13.35 4.1 13.9 4.05 14.6 M6.25 13.7 L6.3 14.7 M4.1 13.4 L4.15 13.35 M6.25 13.7 L6.25 13.25 M4.1 13.4 L1.9 14.25" fill="none" stroke="#000000" stroke-linecap="round" stroke-linejoin="round" stroke-width="2.5"/>
  </g>
</svg>
