<?xml version="1.0" encoding="UTF-8" standalone="no"?>
<svg xmlns:ffdec="https://www.free-decompiler.com/flash" xmlns:xlink="http://www.w3.org/1999/xlink" ffdec:objectType="shape" height="11.1px" width="13.5px" xmlns="http://www.w3.org/2000/svg">
  <g transform="matrix(1.0, 0.0, 0.0, 1.0, 1.8, -8.8)">
    <path d="M7.9 13.95 L8.15 13.2 Q8.15 12.6 7.7 12.25 7.35 12.0 6.75 11.85 5.4 11.7 4.2 12.3 3.2 12.8 2.15 13.9 L1.0 15.55 0.9 15.8 0.8 16.1 1.0 16.75 2.15 18.35 2.25 18.4 2.7 19.0 Q2.95 19.4 2.7 19.7 L1.45 19.75 Q-0.2 19.0 -1.1 17.75 -2.1 16.2 -1.7 14.65 L-1.4 13.65 -1.35 13.5 -1.1 12.65 -0.4 11.75 0.45 10.9 0.5 10.85 Q1.25 10.2 2.25 9.7 L2.45 9.6 Q4.2 8.8 6.1 8.8 8.25 8.8 9.95 9.75 L11.1 10.8 Q11.45 11.35 11.65 12.7 11.8 14.35 11.4 15.2 L10.55 16.65 10.1 17.7 9.85 18.0 9.15 18.45 8.15 18.85 6.3 19.25 5.2 19.1 4.35 18.75 3.55 18.35 3.5 18.35 3.05 18.0 2.35 16.75 2.1 15.5 Q2.1 14.3 3.35 13.55 4.6 12.8 5.75 13.15 7.1 13.55 7.4 14.85 L7.8 14.5 7.9 13.95" fill="#000000" fill-rule="evenodd" stroke="none"/>
  </g>
</svg>
