<?xml version="1.0" encoding="UTF-8" standalone="no"?>
<svg xmlns:ffdec="https://www.free-decompiler.com/flash" xmlns:xlink="http://www.w3.org/1999/xlink" ffdec:objectType="shape" height="10.25px" width="11.05px" xmlns="http://www.w3.org/2000/svg">
  <g transform="matrix(1.0, 0.0, 0.0, 1.0, 0.0, 0.0)">
    <path d="M10.8 3.5 L11.05 5.1 10.9 6.25 Q10.5 8.1 8.95 9.2 L7.5 9.9 Q4.75 10.8 2.3 9.3 -0.05 7.85 0.0 5.55 0.0 4.75 0.35 3.8 0.9 2.5 1.5 1.85 2.75 0.35 4.65 0.05 7.45 -0.35 9.6 1.75 10.5 2.5 10.8 3.5" fill="#8aa5c6" fill-rule="evenodd" stroke="none"/>
    <path d="M3.05 4.75 L3.3 4.0 Q3.75 2.7 4.6 1.9 L5.25 1.1 Q5.5 0.85 6.0 0.65 L6.5 0.55 Q6.8 0.65 6.85 1.1 L7.0 1.8 7.0 2.55 7.1 4.05 7.35 4.7 7.65 5.65 7.9 6.2 8.0 6.75 Q8.05 8.1 7.35 8.8 L6.8 9.15 6.0 9.5 Q5.2 9.7 4.2 9.1 L3.35 8.4 2.95 7.5 2.85 6.25 2.9 5.3 3.05 4.75" fill="#000000" fill-rule="evenodd" stroke="none"/>
  </g>
</svg>
