<?xml version="1.0" encoding="UTF-8" standalone="no"?>
<svg xmlns:ffdec="https://www.free-decompiler.com/flash" xmlns:xlink="http://www.w3.org/1999/xlink" ffdec:objectType="shape" height="10.25px" width="11.05px" xmlns="http://www.w3.org/2000/svg">
  <g transform="matrix(1.0, 0.0, 0.0, 1.0, 0.0, 0.0)">
    <path d="M10.8 3.5 L11.05 5.1 10.9 6.25 Q10.5 8.1 8.95 9.2 L7.5 9.9 Q4.75 10.8 2.3 9.3 -0.05 7.85 0.0 5.55 0.0 4.75 0.35 3.8 0.9 2.5 1.5 1.85 2.75 0.35 4.65 0.05 7.45 -0.35 9.6 1.75 10.5 2.5 10.8 3.5" fill="#a2b2b5" fill-rule="evenodd" stroke="none"/>
    <path d="M3.7 1.45 L3.95 1.45 4.4 1.45 4.6 1.45 5.45 1.45 5.9 1.45 6.1 1.45 6.65 1.45 7.1 1.45 7.2 1.45 7.5 1.55 7.7 1.65 7.8 1.75 7.9 1.85 7.95 1.95 8.0 2.05 8.05 2.15 8.05 2.25 8.05 2.35 8.05 2.45 8.05 2.55 8.0 2.65 7.95 2.75 7.9 2.85 7.8 2.95 7.7 3.05 7.5 3.15 7.2 3.25 7.1 3.25 6.65 3.25 6.1 3.25 5.9 3.25 5.55 3.25 5.45 3.25 4.6 3.25 4.4 3.25 3.95 3.25 3.7 3.25 3.4 3.15 3.2 3.05 3.1 2.95 3.0 2.85 2.95 2.75 2.9 2.65 2.85 2.55 2.85 2.45 2.85 2.35 2.85 2.25 2.85 2.15 2.9 2.05 2.95 1.95 3.0 1.85 3.1 1.75 3.2 1.65 3.4 1.55 3.7 1.5 3.7 1.45 M2.25 4.05 L5.45 4.1 5.9 4.1 7.25 4.1 8.45 4.15 8.8 4.2 9.0 4.3 9.1 4.4 9.25 4.5 9.25 4.6 9.35 4.7 9.35 4.8 9.4 4.9 9.45 5.0 9.45 5.1 9.45 5.25 9.45 5.35 9.4 5.45 9.35 5.55 9.35 5.65 9.25 5.75 9.2 5.85 9.1 5.95 8.9 6.05 8.8 6.1 8.7 6.15 8.45 6.2 7.25 6.2 5.9 6.25 2.25 6.25 2.0 6.2 1.8 6.15 1.65 6.05 1.5 5.95 1.4 5.85 1.3 5.75 1.25 5.65 1.2 5.55 1.2 5.45 1.2 5.35 1.2 5.25 1.15 5.1 1.2 5.0 1.2 4.9 1.2 4.8 1.25 4.7 1.3 4.6 1.4 4.5 1.45 4.4 1.55 4.3 1.75 4.2 1.85 4.15 2.0 4.1 2.25 4.1 2.25 4.05 M3.7 7.15 L3.95 7.15 4.4 7.15 4.6 7.15 5.45 7.15 5.9 7.15 6.1 7.15 6.65 7.15 7.1 7.15 7.2 7.15 7.5 7.25 7.7 7.35 7.8 7.45 7.9 7.55 7.95 7.65 8.0 7.75 8.05 7.85 8.05 7.95 8.05 8.05 8.05 8.15 8.05 8.25 8.0 8.35 7.95 8.45 7.9 8.55 7.8 8.65 7.7 8.75 7.5 8.85 7.2 8.95 7.1 8.95 6.65 8.95 6.1 8.95 5.9 8.95 5.55 8.95 5.45 8.95 4.6 8.95 4.4 8.95 3.95 8.95 3.7 8.95 3.4 8.85 3.2 8.75 3.1 8.65 3.0 8.55 2.95 8.45 2.9 8.35 2.85 8.25 2.85 8.15 2.85 8.05 2.85 7.95 2.85 7.85 2.9 7.75 2.95 7.65 3.0 7.55 3.1 7.45 3.2 7.35 3.4 7.25 3.7 7.2 3.7 7.15" fill="#000000" fill-rule="evenodd" stroke="none"/>
  </g>
</svg>
