<?xml version="1.0" encoding="UTF-8" standalone="no"?>
<svg xmlns:ffdec="https://www.free-decompiler.com/flash" xmlns:xlink="http://www.w3.org/1999/xlink" ffdec:objectType="shape" height="10.25px" width="11.05px" xmlns="http://www.w3.org/2000/svg">
  <g transform="matrix(1.0, 0.0, 0.0, 1.0, 0.0, 0.0)">
    <path d="M10.8 3.5 L11.05 5.1 10.9 6.25 Q10.5 8.1 8.95 9.2 L7.5 9.9 Q4.75 10.8 2.3 9.3 -0.05 7.85 0.0 5.55 0.0 4.75 0.35 3.8 0.9 2.5 1.5 1.85 2.75 0.35 4.65 0.05 7.45 -0.35 9.6 1.75 10.5 2.5 10.8 3.5" fill="#4f4f4f" fill-rule="evenodd" stroke="none"/>
    <path d="M6.55 1.75 L6.25 2.7 5.6 3.4 Q5.2 4.0 5.35 4.8 5.55 5.55 6.15 5.85 L7.25 6.25 Q7.95 6.45 8.1 6.95 8.25 7.7 7.45 8.15 L6.05 8.3 4.05 8.1 Q2.9 7.85 2.4 7.0 1.9 6.25 2.0 4.95 2.15 3.45 3.0 2.4 3.9 1.25 5.35 1.15 6.3 1.05 6.55 1.75" fill="#000000" fill-rule="evenodd" stroke="none"/>
  </g>
</svg>
