<?xml version="1.0" encoding="UTF-8" standalone="no"?>
<svg xmlns:ffdec="https://www.free-decompiler.com/flash" xmlns:xlink="http://www.w3.org/1999/xlink" ffdec:objectType="shape" height="10.25px" width="11.05px" xmlns="http://www.w3.org/2000/svg">
  <g transform="matrix(1.0, 0.0, 0.0, 1.0, 0.0, 0.0)">
    <path d="M10.8 3.5 L11.05 5.1 10.9 6.25 Q10.5 8.1 8.95 9.2 L7.5 9.9 Q4.75 10.8 2.3 9.3 -0.05 7.85 0.0 5.55 0.0 4.75 0.35 3.8 0.9 2.5 1.5 1.85 2.75 0.35 4.65 0.05 7.45 -0.35 9.6 1.75 10.5 2.5 10.8 3.5" fill="#8b76b1" fill-rule="evenodd" stroke="none"/>
    <path d="M3.65 3.45 Q3.4 3.15 3.6 2.7 L4.05 2.1 4.5 1.15 5.35 0.45 5.55 0.4 5.8 0.45 6.6 1.15 7.1 2.1 7.5 2.7 Q7.7 3.15 7.4 3.45 L6.45 3.65 6.5 3.85 6.6 4.6 6.4 4.9 4.75 4.9 4.5 4.6 4.6 3.85 4.6 3.65 3.65 3.45 M3.65 6.9 L4.6 6.7 4.6 6.45 4.5 5.75 4.75 5.45 6.4 5.45 6.6 5.75 6.5 6.45 6.45 6.7 7.4 6.9 Q7.7 7.2 7.5 7.6 L7.1 8.25 6.6 9.15 5.8 9.9 5.55 9.95 5.35 9.9 4.5 9.15 4.05 8.25 3.6 7.6 Q3.4 7.2 3.65 6.9" fill="#000000" fill-rule="evenodd" stroke="none"/>
  </g>
</svg>
