<?xml version="1.0" encoding="UTF-8" standalone="no"?>
<svg xmlns:ffdec="https://www.free-decompiler.com/flash" xmlns:xlink="http://www.w3.org/1999/xlink" ffdec:objectType="shape" height="10.25px" width="11.05px" xmlns="http://www.w3.org/2000/svg">
  <g transform="matrix(1.0, 0.0, 0.0, 1.0, 0.0, 0.0)">
    <path d="M10.8 3.5 L11.05 5.1 10.9 6.25 Q10.5 8.1 8.95 9.2 L7.5 9.9 Q4.75 10.8 2.3 9.3 -0.05 7.85 0.0 5.55 0.0 4.75 0.35 3.8 0.9 2.5 1.5 1.85 2.75 0.35 4.65 0.05 7.45 -0.35 9.6 1.75 10.5 2.5 10.8 3.5" fill="#a9a9a9" fill-rule="evenodd" stroke="none"/>
    <path d="M2.15 2.05 L2.6 1.65 Q2.75 1.5 3.25 1.4 L5.7 0.8 6.25 0.75 7.0 0.8 Q7.75 0.95 8.1 1.45 8.4 1.8 8.3 2.3 L8.25 2.55 8.3 2.7 8.25 5.05 Q9.55 5.2 9.8 6.65 L9.8 7.1 9.5 7.7 8.85 8.45 8.4 8.65 7.2 8.55 6.45 8.05 Q6.05 7.65 6.25 7.05 L6.35 6.55 6.25 6.15 6.15 5.3 6.2 4.85 5.9 4.9 4.05 5.05 4.0 5.6 4.6 5.85 Q5.45 6.35 5.45 7.25 L5.35 8.0 Q5.05 8.9 4.55 9.15 L3.15 9.25 2.65 9.15 1.8 8.45 1.6 7.7 1.65 7.4 1.6 4.75 1.6 3.0 1.85 2.4 2.15 2.05 M5.2 2.85 Q4.6 2.95 4.35 3.2 L4.05 3.7 4.05 3.85 4.7 3.8 5.9 3.55 6.35 3.45 6.4 2.9 5.2 2.85" fill="#000000" fill-rule="evenodd" stroke="none"/>
  </g>
</svg>
