<?xml version="1.0" encoding="UTF-8" standalone="no"?>
<svg xmlns:ffdec="https://www.free-decompiler.com/flash" xmlns:xlink="http://www.w3.org/1999/xlink" ffdec:objectType="shape" height="10.25px" width="11.05px" xmlns="http://www.w3.org/2000/svg">
  <g transform="matrix(1.0, 0.0, 0.0, 1.0, 0.0, 0.0)">
    <path d="M10.8 3.5 L11.05 5.1 10.9 6.25 Q10.5 8.1 8.95 9.2 L7.5 9.9 Q4.75 10.8 2.3 9.3 -0.05 7.85 0.0 5.55 0.0 4.75 0.35 3.8 0.9 2.5 1.5 1.85 2.75 0.35 4.65 0.05 7.45 -0.35 9.6 1.75 10.5 2.5 10.8 3.5" fill="#7d6e5c" fill-rule="evenodd" stroke="none"/>
    <path d="M8.15 4.8 L8.9 6.15 9.0 6.65 8.75 7.25 8.15 7.4 6.0 7.7 5.0 7.75 3.25 7.85 2.4 7.6 Q2.2 7.35 2.45 6.65 L2.85 5.8 3.85 3.0 4.5 1.65 4.8 1.2 Q5.05 1.0 5.4 0.9 L5.95 1.0 6.35 1.4 6.4 1.5 6.9 2.35 7.9 4.45 8.15 4.8 M3.9 6.55 L3.95 6.55 3.9 6.55" fill="#000000" fill-rule="evenodd" stroke="none"/>
  </g>
</svg>
