<?xml version="1.0" encoding="UTF-8" standalone="no"?>
<svg xmlns:ffdec="https://www.free-decompiler.com/flash" xmlns:xlink="http://www.w3.org/1999/xlink" ffdec:objectType="shape" height="10.25px" width="11.05px" xmlns="http://www.w3.org/2000/svg">
  <g transform="matrix(1.0, 0.0, 0.0, 1.0, 0.0, 0.0)">
    <path d="M10.8 3.5 L11.05 5.1 10.9 6.25 Q10.5 8.1 8.95 9.2 L7.5 9.9 Q4.75 10.8 2.3 9.3 -0.05 7.85 0.0 5.55 0.0 4.75 0.35 3.8 0.9 2.5 1.5 1.85 2.75 0.35 4.65 0.05 7.45 -0.35 9.6 1.75 10.5 2.5 10.8 3.5" fill="#c8c38d" fill-rule="evenodd" stroke="none"/>
    <path d="M5.35 5.45 L6.35 8.0 6.55 8.45 6.65 9.1 6.4 9.85 Q6.1 10.25 5.5 10.25 4.95 10.15 4.7 9.75 L4.45 9.0 4.25 8.7 4.1 8.2 3.75 7.45 2.8 5.25 Q2.6 4.6 2.7 4.25 2.8 3.75 3.35 3.55 L4.4 3.6 5.45 3.7 5.0 2.35 Q4.7 1.6 4.95 0.75 L5.15 0.4 6.05 0.45 6.55 1.1 7.3 2.75 7.45 3.4 7.65 3.7 7.7 4.1 7.85 4.65 Q7.95 5.35 6.95 5.6 L5.35 5.45" fill="#000000" fill-rule="evenodd" stroke="none"/>
  </g>
</svg>
