<?xml version="1.0" encoding="UTF-8" standalone="no"?>
<svg xmlns:ffdec="https://www.free-decompiler.com/flash" xmlns:xlink="http://www.w3.org/1999/xlink" ffdec:objectType="shape" height="10.25px" width="11.05px" xmlns="http://www.w3.org/2000/svg">
  <g transform="matrix(1.0, 0.0, 0.0, 1.0, 0.0, 0.0)">
    <path d="M10.8 3.5 L11.05 5.1 10.9 6.25 Q10.5 8.1 8.95 9.2 L7.5 9.9 Q4.75 10.8 2.3 9.3 -0.05 7.85 0.0 5.55 0.0 4.75 0.35 3.8 0.9 2.5 1.5 1.85 2.75 0.35 4.65 0.05 7.45 -0.35 9.6 1.75 10.5 2.5 10.8 3.5" fill="#b19176" fill-rule="evenodd" stroke="none"/>
    <path d="M8.45 3.7 Q9.35 4.7 9.1 6.0 8.9 7.2 7.8 8.05 6.55 8.9 5.3 8.6 3.8 8.35 3.35 7.0 2.95 5.85 3.6 4.7 L3.55 3.95 3.6 3.45 3.8 3.15 3.6 3.0 Q3.3 3.1 3.2 3.7 L2.75 4.35 2.15 4.2 1.95 3.55 Q1.85 2.85 2.25 2.3 L2.85 1.7 3.3 1.45 4.3 1.5 4.85 1.75 5.2 2.3 Q5.95 2.25 6.35 2.75 L6.5 2.9 Q7.65 2.85 8.45 3.7" fill="#000000" fill-rule="evenodd" stroke="none"/>
  </g>
</svg>
