<?xml version="1.0" encoding="UTF-8" standalone="no"?>
<svg xmlns:ffdec="https://www.free-decompiler.com/flash" xmlns:xlink="http://www.w3.org/1999/xlink" ffdec:objectType="shape" height="10.25px" width="11.05px" xmlns="http://www.w3.org/2000/svg">
  <g transform="matrix(1.0, 0.0, 0.0, 1.0, 0.0, 0.0)">
    <path d="M10.8 3.5 L11.05 5.1 10.9 6.25 Q10.5 8.1 8.95 9.2 L7.5 9.9 Q4.75 10.8 2.3 9.3 -0.05 7.85 0.0 5.55 0.0 4.75 0.35 3.8 0.9 2.5 1.5 1.85 2.75 0.35 4.65 0.05 7.45 -0.35 9.6 1.75 10.5 2.5 10.8 3.5" fill="#cb9797" fill-rule="evenodd" stroke="none"/>
    <path d="M6.15 1.6 L5.55 1.75 4.35 2.65 Q5.0 2.85 5.1 3.55 5.2 4.35 4.6 4.75 L5.1 5.35 5.35 5.25 5.65 4.9 Q5.95 4.4 6.6 4.15 7.2 3.95 7.8 4.15 8.9 4.55 9.2 5.7 9.45 6.8 8.9 7.8 8.4 8.8 7.35 9.35 6.3 9.9 5.2 9.7 3.95 9.55 3.3 8.65 L2.95 8.1 Q2.25 7.85 1.8 7.15 1.3 6.35 1.45 5.55 L1.85 3.8 1.9 3.75 1.9 3.6 Q2.0 2.85 3.0 1.85 3.75 1.1 4.6 0.75 5.55 0.35 6.5 0.75 L7.05 1.15 Q7.15 1.65 6.8 1.7 L6.5 1.7 6.15 1.6" fill="#000000" fill-rule="evenodd" stroke="none"/>
  </g>
</svg>
