<?xml version="1.0" encoding="UTF-8" standalone="no"?>
<svg xmlns:ffdec="https://www.free-decompiler.com/flash" xmlns:xlink="http://www.w3.org/1999/xlink" ffdec:objectType="shape" height="11.75px" width="11.05px" xmlns="http://www.w3.org/2000/svg">
  <g transform="matrix(1.0, 0.0, 0.0, 1.0, 0.0, 1.5)">
    <path d="M10.8 3.5 L11.05 5.1 10.9 6.25 Q10.5 8.1 8.95 9.2 L7.5 9.9 Q4.75 10.8 2.3 9.3 -0.05 7.85 0.0 5.55 0.0 4.75 0.35 3.8 0.9 2.5 1.5 1.85 2.75 0.35 4.65 0.05 7.45 -0.35 9.6 1.75 10.5 2.5 10.8 3.5" fill="#89b185" fill-rule="evenodd" stroke="none"/>
    <path d="M5.4 1.05 L6.55 1.45 7.05 0.75 7.1 0.05 7.15 -0.7 Q7.25 -1.25 7.85 -1.45 L8.85 -1.25 9.4 -0.25 Q9.9 1.7 8.95 3.35 L8.8 3.65 Q10.0 5.7 9.5 7.15 9.2 8.1 8.4 8.2 7.95 8.25 7.45 7.9 L7.3 8.2 6.5 9.25 5.2 9.35 4.7 8.6 Q3.85 9.15 3.3 9.2 2.3 9.3 1.85 8.6 1.5 7.95 1.85 7.15 L2.45 6.4 1.75 5.9 Q1.3 5.55 1.3 5.1 1.35 4.6 2.05 4.1 L2.75 3.65 2.35 3.2 Q2.1 2.8 2.2 2.35 2.3 1.85 2.65 1.6 2.9 1.35 3.85 1.15 L5.4 1.05" fill="#000000" fill-rule="evenodd" stroke="none"/>
  </g>
</svg>
