<?xml version="1.0" encoding="UTF-8" standalone="no"?>
<svg xmlns:ffdec="https://www.free-decompiler.com/flash" xmlns:xlink="http://www.w3.org/1999/xlink" ffdec:objectType="shape" height="10.25px" width="11.05px" xmlns="http://www.w3.org/2000/svg">
  <g transform="matrix(1.0, 0.0, 0.0, 1.0, 0.0, 0.0)">
    <path d="M10.8 3.5 L11.05 5.1 10.9 6.25 Q10.5 8.1 8.95 9.2 L7.5 9.9 Q4.75 10.8 2.3 9.3 -0.05 7.85 0.0 5.55 0.0 4.75 0.35 3.8 0.9 2.5 1.5 1.85 2.75 0.35 4.65 0.05 7.45 -0.35 9.6 1.75 10.5 2.5 10.8 3.5" fill="#ffffff" fill-rule="evenodd" stroke="none"/>
    <path d="M5.6 0.6 L5.9 0.65 6.1 0.75 6.25 0.85 6.35 0.95 6.4 1.05 6.45 1.15 6.5 1.25 6.55 1.35 6.55 1.45 6.55 1.55 6.6 1.65 6.65 1.75 6.65 1.85 6.65 1.95 6.65 2.05 6.65 2.15 6.65 2.25 6.65 2.4 6.65 2.5 7.25 2.5 7.5 2.5 7.9 2.6 8.1 2.7 8.25 2.8 8.35 2.9 8.45 3.0 8.6 3.1 8.65 3.2 8.75 3.3 8.75 3.4 8.85 3.5 8.85 3.6 8.85 3.7 8.85 3.8 8.85 3.9 8.75 4.0 8.75 4.1 8.65 4.2 8.6 4.3 8.45 4.4 8.35 4.5 8.25 4.6 8.1 4.7 7.9 4.8 7.5 4.9 7.25 4.9 6.65 4.9 6.65 5.05 6.65 5.15 6.65 5.25 6.65 5.35 6.65 5.45 6.65 5.55 6.65 5.65 6.65 5.75 6.65 5.85 6.65 5.95 6.65 6.05 6.65 6.15 6.65 6.25 6.65 6.35 6.65 6.45 6.65 6.55 6.65 6.65 6.65 6.75 6.65 6.85 6.65 6.95 6.65 7.05 6.65 7.15 6.65 7.25 6.65 7.35 6.65 7.45 6.65 7.55 6.65 7.7 6.65 7.8 6.65 7.9 6.65 8.0 6.65 8.1 6.65 8.2 6.65 8.3 6.65 8.4 6.65 8.5 6.65 8.6 6.65 8.7 6.65 8.8 6.65 8.9 6.65 9.0 6.65 9.1 6.6 9.2 6.55 9.3 6.5 9.4 6.4 9.5 6.35 9.6 6.25 9.7 6.1 9.8 5.95 9.9 5.85 9.9 5.6 9.95 5.25 9.9 5.05 9.8 4.95 9.7 4.8 9.6 4.7 9.5 4.65 9.35 4.6 9.25 4.6 9.15 4.6 9.05 4.6 8.95 4.55 8.85 4.55 8.75 4.55 8.65 4.55 8.55 4.55 8.45 4.55 8.35 4.55 8.25 4.55 8.15 4.55 8.05 4.55 7.95 4.55 7.85 4.55 7.75 4.55 7.65 4.55 7.55 4.55 7.45 4.55 7.35 4.55 7.25 4.55 7.15 4.55 7.05 4.55 6.95 4.55 6.85 4.55 6.7 4.55 6.6 4.55 6.5 4.55 6.4 4.55 6.3 4.55 6.2 4.55 6.1 4.55 6.0 4.55 5.9 4.55 5.8 4.55 5.7 4.55 5.6 4.55 5.5 4.55 5.4 4.55 5.3 4.55 5.2 4.55 5.1 4.55 5.0 4.55 4.9 3.7 4.9 3.35 4.85 3.1 4.75 2.95 4.65 2.85 4.55 2.75 4.45 2.7 4.35 2.6 4.25 2.6 4.15 2.55 4.05 2.5 3.95 2.5 3.85 2.5 3.75 2.5 3.65 2.5 3.55 2.5 3.45 2.55 3.35 2.6 3.25 2.6 3.1 2.7 3.0 2.8 2.9 2.9 2.8 3.0 2.7 3.15 2.6 3.35 2.55 3.45 2.5 3.7 2.5 4.6 2.5 4.55 2.45 4.55 2.35 4.55 2.25 4.5 2.15 4.55 2.05 4.55 1.95 4.55 1.85 4.6 1.75 4.6 1.65 4.6 1.55 4.65 1.4 4.65 1.3 4.7 1.2 4.7 1.1 4.8 1.0 4.85 0.9 4.95 0.8 5.15 0.7 5.25 0.65 5.35 0.6 5.6 0.6" fill="#000000" fill-rule="evenodd" stroke="none"/>
  </g>
</svg>
