<?xml version="1.0" encoding="UTF-8" standalone="no"?>
<svg xmlns:ffdec="https://www.free-decompiler.com/flash" xmlns:xlink="http://www.w3.org/1999/xlink" ffdec:objectType="shape" height="10.25px" width="11.05px" xmlns="http://www.w3.org/2000/svg">
  <g transform="matrix(1.0, 0.0, 0.0, 1.0, 0.0, 0.0)">
    <path d="M10.8 3.5 L11.05 5.1 10.9 6.25 Q10.5 8.1 8.95 9.2 L7.5 9.9 Q4.75 10.8 2.3 9.3 -0.05 7.85 0.0 5.55 0.0 4.75 0.35 3.8 0.9 2.5 1.5 1.85 2.75 0.35 4.65 0.05 7.45 -0.35 9.6 1.75 10.5 2.5 10.8 3.5" fill="#a3dad6" fill-rule="evenodd" stroke="none"/>
    <path d="M5.75 9.65 L5.65 9.65 5.55 9.65 5.55 9.6 5.4 9.55 5.2 9.45 5.1 9.35 5.0 9.25 4.9 9.15 4.85 9.05 4.85 8.95 4.8 8.85 4.8 8.75 4.75 8.65 4.8 8.55 4.75 8.45 4.75 8.35 4.75 8.25 4.75 8.15 4.75 8.05 4.75 7.95 4.75 7.85 4.75 7.75 4.75 7.65 4.75 7.55 4.75 7.5 4.7 7.55 3.9 8.2 2.95 8.05 Q2.65 7.55 3.3 6.7 L3.7 6.2 3.3 6.2 2.2 6.25 1.8 6.15 1.6 6.05 1.45 5.95 1.35 5.85 1.25 5.75 1.2 5.65 1.15 5.55 1.1 5.45 1.05 5.45 1.05 5.35 1.05 5.25 1.05 5.15 1.05 5.05 1.05 4.95 1.1 4.95 1.15 4.85 1.2 4.75 1.25 4.65 1.35 4.55 1.45 4.45 1.6 4.35 1.8 4.25 2.2 4.15 3.3 4.2 3.7 4.2 3.3 3.7 Q2.65 2.85 2.95 2.35 L3.9 2.2 Q4.25 2.3 4.7 2.85 L4.75 2.9 4.75 2.85 4.75 2.75 4.75 2.65 4.75 2.55 4.75 2.45 4.75 2.35 4.75 2.25 4.75 2.15 4.75 2.05 4.75 1.95 4.8 1.85 4.75 1.75 4.8 1.65 4.8 1.55 4.85 1.45 4.85 1.35 4.9 1.25 5.0 1.15 5.1 1.05 5.2 0.95 5.4 0.85 5.55 0.8 5.55 0.75 5.65 0.8 5.75 0.75 5.75 0.8 5.9 0.85 6.1 0.95 6.2 1.05 6.3 1.15 6.4 1.25 6.45 1.35 6.45 1.45 6.5 1.55 6.5 1.65 6.55 1.75 6.5 1.85 6.55 1.95 6.55 2.05 6.55 2.15 6.55 2.25 6.55 2.35 6.55 2.45 6.55 2.55 6.55 2.65 6.55 2.75 6.55 2.85 6.55 2.9 6.6 2.85 Q7.05 2.3 7.4 2.2 7.95 1.95 8.35 2.35 8.65 2.85 8.0 3.7 L7.6 4.2 8.0 4.2 9.1 4.15 9.5 4.25 9.7 4.35 9.85 4.45 9.95 4.55 10.05 4.65 10.1 4.75 10.15 4.85 10.2 4.95 10.25 4.95 10.25 5.05 10.25 5.15 10.25 5.25 10.25 5.35 10.25 5.45 10.2 5.45 10.15 5.55 10.1 5.65 10.05 5.75 9.95 5.85 9.85 5.95 9.7 6.05 9.5 6.15 9.1 6.25 8.0 6.2 7.6 6.2 8.0 6.7 Q8.65 7.55 8.35 8.05 L7.4 8.2 6.6 7.55 6.55 7.5 6.55 7.55 6.55 7.65 6.55 7.75 6.55 7.85 6.55 7.95 6.55 8.05 6.55 8.15 6.55 8.25 6.55 8.35 6.55 8.45 6.5 8.55 6.55 8.65 6.5 8.75 6.5 8.85 6.45 8.95 6.45 9.05 6.4 9.15 6.3 9.25 6.2 9.35 6.1 9.45 5.9 9.55 5.75 9.6 5.75 9.65" fill="#000000" fill-rule="evenodd" stroke="none"/>
  </g>
</svg>
